<svg id="visual" viewBox="0 0 960 540" width="960" height="540" xmlns="http://www.w3.org/2000/svg" xmlns:xlink="http://www.w3.org/1999/xlink" version="1.1"><path d="M0 104L10.7 105.7C21.3 107.3 42.7 110.7 64 107C85.3 103.3 106.7 92.7 128 91C149.3 89.3 170.7 96.7 192 96.7C213.3 96.7 234.7 89.3 256 89.3C277.3 89.3 298.7 96.7 320 96.7C341.3 96.7 362.7 89.3 384 86.5C405.3 83.7 426.7 85.3 448 85.3C469.3 85.3 490.7 83.7 512 88.2C533.3 92.7 554.7 103.3 576 111.5C597.3 119.7 618.7 125.3 640 124.5C661.3 123.7 682.7 116.3 704 112.7C725.3 109 746.7 109 768 105.3C789.3 101.7 810.7 94.3 832 92.5C853.3 90.7 874.7 94.3 896 100.7C917.3 107 938.7 116 949.3 120.5L960 125L960 0L949.3 0C938.7 0 917.3 0 896 0C874.7 0 853.3 0 832 0C810.7 0 789.3 0 768 0C746.7 0 725.3 0 704 0C682.7 0 661.3 0 640 0C618.7 0 597.3 0 576 0C554.7 0 533.3 0 512 0C490.7 0 469.3 0 448 0C426.7 0 405.3 0 384 0C362.7 0 341.3 0 320 0C298.7 0 277.3 0 256 0C234.7 0 213.3 0 192 0C170.7 0 149.3 0 128 0C106.7 0 85.3 0 64 0C42.7 0 21.3 0 10.7 0L0 0Z" fill="#ffffff"></path><path d="M0 152L10.7 154.7C21.3 157.3 42.7 162.7 64 160.8C85.3 159 106.7 150 128 145.5C149.3 141 170.7 141 192 140.2C213.3 139.3 234.7 137.7 256 141.3C277.3 145 298.7 154 320 154.8C341.3 155.7 362.7 148.3 384 143.8C405.3 139.3 426.7 137.7 448 136.8C469.3 136 490.7 136 512 139.7C533.3 143.3 554.7 150.7 576 157.8C597.3 165 618.7 172 640 172C661.3 172 682.7 165 704 163.2C725.3 161.3 746.7 164.7 768 160.2C789.3 155.7 810.7 143.3 832 140.7C853.3 138 874.7 145 896 154C917.3 163 938.7 174 949.3 179.5L960 185L960 123L949.3 118.5C938.7 114 917.3 105 896 98.7C874.7 92.3 853.3 88.7 832 90.5C810.7 92.3 789.3 99.7 768 103.3C746.7 107 725.3 107 704 110.7C682.7 114.3 661.3 121.7 640 122.5C618.7 123.3 597.3 117.7 576 109.5C554.7 101.3 533.3 90.7 512 86.2C490.7 81.7 469.3 83.3 448 83.3C426.7 83.3 405.3 81.7 384 84.5C362.7 87.3 341.3 94.7 320 94.7C298.7 94.7 277.3 87.3 256 87.3C234.7 87.3 213.3 94.7 192 94.7C170.7 94.7 149.3 87.3 128 89C106.7 90.7 85.3 101.3 64 105C42.7 108.7 21.3 105.3 10.7 103.7L0 102Z" fill="#eae7eb"></path><path d="M0 179L10.7 180.8C21.3 182.7 42.7 186.3 64 183.7C85.3 181 106.7 172 128 168.3C149.3 164.7 170.7 166.3 192 165.5C213.3 164.7 234.7 161.3 256 164.2C277.3 167 298.7 176 320 177.7C341.3 179.3 362.7 173.7 384 169.2C405.3 164.7 426.7 161.3 448 160.5C469.3 159.7 490.7 161.3 512 165.8C533.3 170.3 554.7 177.7 576 184C597.3 190.3 618.7 195.7 640 194.7C661.3 193.7 682.7 186.3 704 185.3C725.3 184.3 746.7 189.7 768 185.2C789.3 180.7 810.7 166.3 832 162.8C853.3 159.3 874.7 166.7 896 175.7C917.3 184.7 938.7 195.3 949.3 200.7L960 206L960 183L949.3 177.5C938.7 172 917.3 161 896 152C874.7 143 853.3 136 832 138.7C810.7 141.3 789.3 153.7 768 158.2C746.7 162.7 725.3 159.3 704 161.2C682.7 163 661.3 170 640 170C618.7 170 597.3 163 576 155.8C554.7 148.7 533.3 141.3 512 137.7C490.7 134 469.3 134 448 134.8C426.7 135.7 405.3 137.3 384 141.8C362.7 146.3 341.3 153.7 320 152.8C298.7 152 277.3 143 256 139.3C234.7 135.7 213.3 137.3 192 138.2C170.7 139 149.3 139 128 143.5C106.7 148 85.3 157 64 158.8C42.7 160.7 21.3 155.3 10.7 152.7L0 150Z" fill="#d5d0d8"></path><path d="M0 217L10.7 217C21.3 217 42.7 217 64 212.5C85.3 208 106.7 199 128 197.2C149.3 195.3 170.7 200.7 192 199.8C213.3 199 234.7 192 256 194.7C277.3 197.3 298.7 209.7 320 211.3C341.3 213 362.7 204 384 197.8C405.3 191.7 426.7 188.3 448 188.3C469.3 188.3 490.7 191.7 512 197C533.3 202.3 554.7 209.7 576 215.2C597.3 220.7 618.7 224.3 640 225.2C661.3 226 682.7 224 704 223C725.3 222 746.7 222 768 215.8C789.3 209.7 810.7 197.3 832 194.7C853.3 192 874.7 199 896 207C917.3 215 938.7 224 949.3 228.5L960 233L960 204L949.3 198.7C938.7 193.3 917.3 182.7 896 173.7C874.7 164.7 853.3 157.3 832 160.8C810.7 164.3 789.3 178.7 768 183.2C746.7 187.7 725.3 182.3 704 183.3C682.7 184.3 661.3 191.7 640 192.7C618.7 193.7 597.3 188.3 576 182C554.7 175.7 533.3 168.3 512 163.8C490.7 159.3 469.3 157.7 448 158.5C426.7 159.3 405.3 162.7 384 167.2C362.7 171.7 341.3 177.3 320 175.7C298.7 174 277.3 165 256 162.2C234.7 159.3 213.3 162.7 192 163.5C170.7 164.3 149.3 162.7 128 166.3C106.7 170 85.3 179 64 181.7C42.7 184.3 21.3 180.7 10.7 178.8L0 177Z" fill="#c0bac4"></path><path d="M0 249L10.7 249C21.3 249 42.7 249 64 244.5C85.3 240 106.7 231 128 229.3C149.3 227.7 170.7 233.3 192 232.5C213.3 231.7 234.7 224.3 256 226C277.3 227.7 298.7 238.3 320 240.2C341.3 242 362.7 235 384 227.8C405.3 220.7 426.7 213.3 448 212.3C469.3 211.3 490.7 216.7 512 223.8C533.3 231 554.7 240 576 244.5C597.3 249 618.7 249 640 248.2C661.3 247.3 682.7 245.7 704 245.7C725.3 245.7 746.7 247.3 768 242C789.3 236.7 810.7 224.3 832 220.8C853.3 217.3 874.7 222.7 896 230.7C917.3 238.7 938.7 249.3 949.3 254.7L960 260L960 231L949.3 226.5C938.7 222 917.3 213 896 205C874.7 197 853.3 190 832 192.7C810.7 195.3 789.3 207.7 768 213.8C746.7 220 725.3 220 704 221C682.7 222 661.3 224 640 223.2C618.7 222.3 597.3 218.7 576 213.2C554.7 207.7 533.3 200.3 512 195C490.7 189.7 469.3 186.3 448 186.3C426.7 186.3 405.3 189.7 384 195.8C362.7 202 341.3 211 320 209.3C298.7 207.7 277.3 195.3 256 192.7C234.7 190 213.3 197 192 197.8C170.7 198.7 149.3 193.3 128 195.2C106.7 197 85.3 206 64 210.5C42.7 215 21.3 215 10.7 215L0 215Z" fill="#aca3b2"></path><path d="M0 276L10.7 275.2C21.3 274.3 42.7 272.7 64 267.3C85.3 262 106.7 253 128 252.2C149.3 251.3 170.7 258.7 192 258.7C213.3 258.7 234.7 251.3 256 253C277.3 254.7 298.7 265.3 320 266.2C341.3 267 362.7 258 384 250.8C405.3 243.7 426.7 238.3 448 237.5C469.3 236.7 490.7 240.3 512 246.7C533.3 253 554.7 262 576 266.5C597.3 271 618.7 271 640 270.2C661.3 269.3 682.7 267.7 704 268.5C725.3 269.3 746.7 272.7 768 267.2C789.3 261.7 810.7 247.3 832 242.8C853.3 238.3 874.7 243.7 896 251.8C917.3 260 938.7 271 949.3 276.5L960 282L960 258L949.3 252.7C938.7 247.3 917.3 236.7 896 228.7C874.7 220.7 853.3 215.3 832 218.8C810.7 222.3 789.3 234.7 768 240C746.7 245.3 725.3 243.7 704 243.7C682.7 243.7 661.3 245.3 640 246.2C618.7 247 597.3 247 576 242.5C554.7 238 533.3 229 512 221.8C490.7 214.7 469.3 209.3 448 210.3C426.7 211.3 405.3 218.7 384 225.8C362.7 233 341.3 240 320 238.2C298.7 236.3 277.3 225.7 256 224C234.7 222.3 213.3 229.7 192 230.5C170.7 231.3 149.3 225.7 128 227.3C106.7 229 85.3 238 64 242.5C42.7 247 21.3 247 10.7 247L0 247Z" fill="#988e9f"></path><path d="M0 293L10.7 292C21.3 291 42.7 289 64 284.5C85.3 280 106.7 273 128 272.2C149.3 271.3 170.7 276.7 192 276.7C213.3 276.7 234.7 271.3 256 274C277.3 276.7 298.7 287.3 320 287.3C341.3 287.3 362.7 276.7 384 268.5C405.3 260.3 426.7 254.7 448 253.7C469.3 252.7 490.7 256.3 512 263.7C533.3 271 554.7 282 576 287.5C597.3 293 618.7 293 640 292C661.3 291 682.7 289 704 289.8C725.3 290.7 746.7 294.3 768 289C789.3 283.7 810.7 269.3 832 264.8C853.3 260.3 874.7 265.7 896 272.8C917.3 280 938.7 289 949.3 293.5L960 298L960 280L949.3 274.5C938.7 269 917.3 258 896 249.8C874.7 241.7 853.3 236.3 832 240.8C810.7 245.3 789.3 259.7 768 265.2C746.7 270.7 725.3 267.3 704 266.5C682.7 265.7 661.3 267.3 640 268.2C618.7 269 597.3 269 576 264.5C554.7 260 533.3 251 512 244.7C490.7 238.3 469.3 234.7 448 235.5C426.7 236.3 405.3 241.7 384 248.8C362.7 256 341.3 265 320 264.2C298.7 263.3 277.3 252.7 256 251C234.7 249.3 213.3 256.7 192 256.7C170.7 256.7 149.3 249.3 128 250.2C106.7 251 85.3 260 64 265.3C42.7 270.7 21.3 272.3 10.7 273.2L0 274Z" fill="#84798d"></path><path d="M0 309L10.7 308C21.3 307 42.7 305 64 300.5C85.3 296 106.7 289 128 289C149.3 289 170.7 296 192 296.8C213.3 297.7 234.7 292.3 256 295.2C277.3 298 298.7 309 320 308.2C341.3 307.3 362.7 294.7 384 285.7C405.3 276.7 426.7 271.3 448 271.3C469.3 271.3 490.7 276.7 512 283.8C533.3 291 554.7 300 576 304.5C597.3 309 618.7 309 640 308C661.3 307 682.7 305 704 305.8C725.3 306.7 746.7 310.3 768 305C789.3 299.7 810.7 285.3 832 280.8C853.3 276.3 874.7 281.7 896 289.8C917.3 298 938.7 309 949.3 314.5L960 320L960 296L949.3 291.5C938.7 287 917.3 278 896 270.8C874.7 263.7 853.3 258.3 832 262.8C810.7 267.3 789.3 281.7 768 287C746.7 292.3 725.3 288.7 704 287.8C682.7 287 661.3 289 640 290C618.7 291 597.3 291 576 285.5C554.7 280 533.3 269 512 261.7C490.7 254.3 469.3 250.7 448 251.7C426.7 252.7 405.3 258.3 384 266.5C362.7 274.7 341.3 285.3 320 285.3C298.7 285.3 277.3 274.7 256 272C234.7 269.3 213.3 274.7 192 274.7C170.7 274.7 149.3 269.3 128 270.2C106.7 271 85.3 278 64 282.5C42.7 287 21.3 289 10.7 290L0 291Z" fill="#71647b"></path><path d="M0 411L10.7 411C21.3 411 42.7 411 64 409.3C85.3 407.7 106.7 404.3 128 402.7C149.3 401 170.7 401 192 401C213.3 401 234.7 401 256 405.5C277.3 410 298.7 419 320 419.8C341.3 420.7 362.7 413.3 384 407.8C405.3 402.3 426.7 398.7 448 397.8C469.3 397 490.7 399 512 400C533.3 401 554.7 401 576 401.8C597.3 402.7 618.7 404.3 640 408.8C661.3 413.3 682.7 420.7 704 420.7C725.3 420.7 746.7 413.3 768 405.2C789.3 397 810.7 388 832 386.2C853.3 384.3 874.7 389.7 896 396C917.3 402.3 938.7 409.7 949.3 413.3L960 417L960 318L949.3 312.5C938.7 307 917.3 296 896 287.8C874.7 279.7 853.3 274.3 832 278.8C810.7 283.3 789.3 297.7 768 303C746.7 308.3 725.3 304.7 704 303.8C682.7 303 661.3 305 640 306C618.7 307 597.3 307 576 302.5C554.7 298 533.3 289 512 281.8C490.7 274.7 469.3 269.3 448 269.3C426.7 269.3 405.3 274.7 384 283.7C362.7 292.7 341.3 305.3 320 306.2C298.7 307 277.3 296 256 293.2C234.7 290.3 213.3 295.7 192 294.8C170.7 294 149.3 287 128 287C106.7 287 85.3 294 64 298.5C42.7 303 21.3 305 10.7 306L0 307Z" fill="#5f506a"></path><path d="M0 444L10.7 444C21.3 444 42.7 444 64 441.3C85.3 438.7 106.7 433.3 128 430.7C149.3 428 170.7 428 192 428C213.3 428 234.7 428 256 432.5C277.3 437 298.7 446 320 446.8C341.3 447.7 362.7 440.3 384 436.7C405.3 433 426.7 433 448 433C469.3 433 490.7 433 512 433C533.3 433 554.7 433 576 434.8C597.3 436.7 618.7 440.3 640 444C661.3 447.7 682.7 451.3 704 449.5C725.3 447.7 746.7 440.3 768 434C789.3 427.7 810.7 422.3 832 422.3C853.3 422.3 874.7 427.7 896 434C917.3 440.3 938.7 447.7 949.3 451.3L960 455L960 415L949.3 411.3C938.7 407.7 917.3 400.3 896 394C874.7 387.7 853.3 382.3 832 384.2C810.7 386 789.3 395 768 403.2C746.7 411.3 725.3 418.7 704 418.7C682.7 418.7 661.3 411.3 640 406.8C618.7 402.3 597.3 400.7 576 399.8C554.7 399 533.3 399 512 398C490.7 397 469.3 395 448 395.8C426.7 396.7 405.3 400.3 384 405.8C362.7 411.3 341.3 418.7 320 417.8C298.7 417 277.3 408 256 403.5C234.7 399 213.3 399 192 399C170.7 399 149.3 399 128 400.7C106.7 402.3 85.3 405.7 64 407.3C42.7 409 21.3 409 10.7 409L0 409Z" fill="#4d3e59"></path><path d="M0 498L10.7 498C21.3 498 42.7 498 64 498C85.3 498 106.7 498 128 498.8C149.3 499.7 170.7 501.3 192 502.2C213.3 503 234.7 503 256 504C277.3 505 298.7 507 320 505.2C341.3 503.3 362.7 497.7 384 497.7C405.3 497.7 426.7 503.3 448 503.3C469.3 503.3 490.7 497.7 512 496.7C533.3 495.7 554.7 499.3 576 500.3C597.3 501.3 618.7 499.7 640 500.7C661.3 501.7 682.7 505.3 704 506.2C725.3 507 746.7 505 768 502.2C789.3 499.3 810.7 495.7 832 493.8C853.3 492 874.7 492 896 494.8C917.3 497.7 938.7 503.3 949.3 506.2L960 509L960 453L949.3 449.3C938.7 445.7 917.3 438.3 896 432C874.7 425.7 853.3 420.3 832 420.3C810.7 420.3 789.3 425.7 768 432C746.7 438.3 725.3 445.7 704 447.5C682.7 449.3 661.3 445.7 640 442C618.7 438.3 597.3 434.7 576 432.8C554.7 431 533.3 431 512 431C490.7 431 469.3 431 448 431C426.7 431 405.3 431 384 434.7C362.7 438.3 341.3 445.7 320 444.8C298.7 444 277.3 435 256 430.5C234.7 426 213.3 426 192 426C170.7 426 149.3 426 128 428.7C106.7 431.3 85.3 436.7 64 439.3C42.7 442 21.3 442 10.7 442L0 442Z" fill="#3b2b48"></path><path d="M0 541L10.7 541C21.3 541 42.7 541 64 541C85.3 541 106.7 541 128 541C149.3 541 170.7 541 192 541C213.3 541 234.7 541 256 541C277.3 541 298.7 541 320 541C341.3 541 362.7 541 384 541C405.3 541 426.7 541 448 541C469.3 541 490.7 541 512 541C533.3 541 554.7 541 576 541C597.3 541 618.7 541 640 541C661.3 541 682.7 541 704 541C725.3 541 746.7 541 768 541C789.3 541 810.7 541 832 541C853.3 541 874.7 541 896 541C917.3 541 938.7 541 949.3 541L960 541L960 507L949.3 504.2C938.7 501.3 917.3 495.7 896 492.8C874.7 490 853.3 490 832 491.8C810.7 493.7 789.3 497.3 768 500.2C746.7 503 725.3 505 704 504.2C682.7 503.3 661.3 499.7 640 498.7C618.7 497.7 597.3 499.3 576 498.3C554.7 497.3 533.3 493.7 512 494.7C490.7 495.7 469.3 501.3 448 501.3C426.7 501.3 405.3 495.7 384 495.7C362.7 495.7 341.3 501.3 320 503.2C298.7 505 277.3 503 256 502C234.7 501 213.3 501 192 500.2C170.7 499.3 149.3 497.7 128 496.8C106.7 496 85.3 496 64 496C42.7 496 21.3 496 10.7 496L0 496Z" fill="#2a1a38"></path></svg>