<svg id="visual" viewBox="0 0 960 540" width="960" height="540" xmlns="http://www.w3.org/2000/svg" xmlns:xlink="http://www.w3.org/1999/xlink" version="1.1"><path d="M0 109L11.5 104.5C23 100 46 91 68.8 94.7C91.7 98.3 114.3 114.7 137.2 116.5C160 118.3 183 105.7 205.8 100.2C228.7 94.7 251.3 96.3 274.2 101.7C297 107 320 116 342.8 115.2C365.7 114.3 388.3 103.7 411.2 98.3C434 93 457 93 480 97.5C503 102 526 111 548.8 120C571.7 129 594.3 138 617.2 135.3C640 132.7 663 118.3 685.8 115.7C708.7 113 731.3 122 754.2 118.3C777 114.7 800 98.3 822.8 88.3C845.7 78.3 868.3 74.7 891.2 78.3C914 82 937 93 948.5 98.5L960 104L960 0L948.5 0C937 0 914 0 891.2 0C868.3 0 845.7 0 822.8 0C800 0 777 0 754.2 0C731.3 0 708.7 0 685.8 0C663 0 640 0 617.2 0C594.3 0 571.7 0 548.8 0C526 0 503 0 480 0C457 0 434 0 411.2 0C388.3 0 365.7 0 342.8 0C320 0 297 0 274.2 0C251.3 0 228.7 0 205.8 0C183 0 160 0 137.2 0C114.3 0 91.7 0 68.8 0C46 0 23 0 11.5 0L0 0Z" fill="#4e3762"></path><path d="M0 141L11.5 135.7C23 130.3 46 119.7 68.8 124.2C91.7 128.7 114.3 148.3 137.2 151C160 153.7 183 139.3 205.8 133.2C228.7 127 251.3 129 274.2 137.2C297 145.3 320 159.7 342.8 158.7C365.7 157.7 388.3 141.3 411.2 132.3C434 123.3 457 121.7 480 126.2C503 130.7 526 141.3 548.8 151.2C571.7 161 594.3 170 617.2 170C640 170 663 161 685.8 157.5C708.7 154 731.3 156 754.2 150.7C777 145.3 800 132.7 822.8 126.3C845.7 120 868.3 120 891.2 123.5C914 127 937 134 948.5 137.5L960 141L960 102L948.5 96.5C937 91 914 80 891.2 76.3C868.3 72.7 845.7 76.3 822.8 86.3C800 96.3 777 112.7 754.2 116.3C731.3 120 708.7 111 685.8 113.7C663 116.3 640 130.7 617.2 133.3C594.3 136 571.7 127 548.8 118C526 109 503 100 480 95.5C457 91 434 91 411.2 96.3C388.3 101.7 365.7 112.3 342.8 113.2C320 114 297 105 274.2 99.7C251.3 94.3 228.7 92.7 205.8 98.2C183 103.7 160 116.3 137.2 114.5C114.3 112.7 91.7 96.3 68.8 92.7C46 89 23 98 11.5 102.5L0 107Z" fill="#47325a"></path><path d="M0 201L11.5 194.7C23 188.3 46 175.7 68.8 178.3C91.7 181 114.3 199 137.2 203.5C160 208 183 199 205.8 190.8C228.7 182.7 251.3 175.3 274.2 178C297 180.7 320 193.3 342.8 194.3C365.7 195.3 388.3 184.7 411.2 176.7C434 168.7 457 163.3 480 166.8C503 170.3 526 182.7 548.8 195.2C571.7 207.7 594.3 220.3 617.2 219.5C640 218.7 663 204.3 685.8 199C708.7 193.7 731.3 197.3 754.2 192C777 186.7 800 172.3 822.8 167.8C845.7 163.3 868.3 168.7 891.2 174C914 179.3 937 184.7 948.5 187.3L960 190L960 139L948.5 135.5C937 132 914 125 891.2 121.5C868.3 118 845.7 118 822.8 124.3C800 130.7 777 143.3 754.2 148.7C731.3 154 708.7 152 685.8 155.5C663 159 640 168 617.2 168C594.3 168 571.7 159 548.8 149.2C526 139.3 503 128.7 480 124.2C457 119.7 434 121.3 411.2 130.3C388.3 139.3 365.7 155.7 342.8 156.7C320 157.7 297 143.3 274.2 135.2C251.3 127 228.7 125 205.8 131.2C183 137.3 160 151.7 137.2 149C114.3 146.3 91.7 126.7 68.8 122.2C46 117.7 23 128.3 11.5 133.7L0 139Z" fill="#412c52"></path><path d="M0 244L11.5 236.8C23 229.7 46 215.3 68.8 218C91.7 220.7 114.3 240.3 137.2 243.8C160 247.3 183 234.7 205.8 223.8C228.7 213 251.3 204 274.2 208.5C297 213 320 231 342.8 234.7C365.7 238.3 388.3 227.7 411.2 219.7C434 211.7 457 206.3 480 210C503 213.7 526 226.3 548.8 237.2C571.7 248 594.3 257 617.2 254.2C640 251.3 663 236.7 685.8 233C708.7 229.3 731.3 236.7 754.2 231.3C777 226 800 208 822.8 201.7C845.7 195.3 868.3 200.7 891.2 207C914 213.3 937 220.7 948.5 224.3L960 228L960 188L948.5 185.3C937 182.7 914 177.3 891.2 172C868.3 166.7 845.7 161.3 822.8 165.8C800 170.3 777 184.7 754.2 190C731.3 195.3 708.7 191.7 685.8 197C663 202.3 640 216.7 617.2 217.5C594.3 218.3 571.7 205.7 548.8 193.2C526 180.7 503 168.3 480 164.8C457 161.3 434 166.7 411.2 174.7C388.3 182.7 365.7 193.3 342.8 192.3C320 191.3 297 178.7 274.2 176C251.3 173.3 228.7 180.7 205.8 188.8C183 197 160 206 137.2 201.5C114.3 197 91.7 179 68.8 176.3C46 173.7 23 186.3 11.5 192.7L0 199Z" fill="#3a274b"></path><path d="M0 282L11.5 273.8C23 265.7 46 249.3 68.8 249.3C91.7 249.3 114.3 265.7 137.2 269.3C160 273 183 264 205.8 253.2C228.7 242.3 251.3 229.7 274.2 234.2C297 238.7 320 260.3 342.8 265.7C365.7 271 388.3 260 411.2 252.8C434 245.7 457 242.3 480 246C503 249.7 526 260.3 548.8 270.2C571.7 280 594.3 289 617.2 284.5C640 280 663 262 685.8 256.7C708.7 251.3 731.3 258.7 754.2 255C777 251.3 800 236.7 822.8 230.3C845.7 224 868.3 226 891.2 232.3C914 238.7 937 249.3 948.5 254.7L960 260L960 226L948.5 222.3C937 218.7 914 211.3 891.2 205C868.3 198.7 845.7 193.3 822.8 199.7C800 206 777 224 754.2 229.3C731.3 234.7 708.7 227.3 685.8 231C663 234.7 640 249.3 617.2 252.2C594.3 255 571.7 246 548.8 235.2C526 224.3 503 211.7 480 208C457 204.3 434 209.7 411.2 217.7C388.3 225.7 365.7 236.3 342.8 232.7C320 229 297 211 274.2 206.5C251.3 202 228.7 211 205.8 221.8C183 232.7 160 245.3 137.2 241.8C114.3 238.3 91.7 218.7 68.8 216C46 213.3 23 227.7 11.5 234.8L0 242Z" fill="#332243"></path><path d="M0 352L11.5 343C23 334 46 316 68.8 313.3C91.7 310.7 114.3 323.3 137.2 324.2C160 325 183 314 205.8 309.5C228.7 305 251.3 307 274.2 315.2C297 323.3 320 337.7 342.8 340.3C365.7 343 388.3 334 411.2 324.2C434 314.3 457 303.7 480 307.3C503 311 526 329 548.8 338.8C571.7 348.7 594.3 350.3 617.2 345.8C640 341.3 663 330.7 685.8 324.3C708.7 318 731.3 316 754.2 307.8C777 299.7 800 285.3 822.8 283.5C845.7 281.7 868.3 292.3 891.2 297.7C914 303 937 303 948.5 303L960 303L960 258L948.5 252.7C937 247.3 914 236.7 891.2 230.3C868.3 224 845.7 222 822.8 228.3C800 234.7 777 249.3 754.2 253C731.3 256.7 708.7 249.3 685.8 254.7C663 260 640 278 617.2 282.5C594.3 287 571.7 278 548.8 268.2C526 258.3 503 247.7 480 244C457 240.3 434 243.7 411.2 250.8C388.3 258 365.7 269 342.8 263.7C320 258.3 297 236.7 274.2 232.2C251.3 227.7 228.7 240.3 205.8 251.2C183 262 160 271 137.2 267.3C114.3 263.7 91.7 247.3 68.8 247.3C46 247.3 23 263.7 11.5 271.8L0 280Z" fill="#2d1d3c"></path><path d="M0 384L11.5 372.3C23 360.7 46 337.3 68.8 333.8C91.7 330.3 114.3 346.7 137.2 347.7C160 348.7 183 334.3 205.8 328.8C228.7 323.3 251.3 326.7 274.2 336.5C297 346.3 320 362.7 342.8 367.2C365.7 371.7 388.3 364.3 411.2 352.7C434 341 457 325 480 326C503 327 526 345 548.8 355.8C571.7 366.7 594.3 370.3 617.2 368.5C640 366.7 663 359.3 685.8 354.8C708.7 350.3 731.3 348.7 754.2 340.5C777 332.3 800 317.7 822.8 315.8C845.7 314 868.3 325 891.2 328.7C914 332.3 937 328.7 948.5 326.8L960 325L960 301L948.5 301C937 301 914 301 891.2 295.7C868.3 290.3 845.7 279.7 822.8 281.5C800 283.3 777 297.7 754.2 305.8C731.3 314 708.7 316 685.8 322.3C663 328.7 640 339.3 617.2 343.8C594.3 348.3 571.7 346.7 548.8 336.8C526 327 503 309 480 305.3C457 301.7 434 312.3 411.2 322.2C388.3 332 365.7 341 342.8 338.3C320 335.7 297 321.3 274.2 313.2C251.3 305 228.7 303 205.8 307.5C183 312 160 323 137.2 322.2C114.3 321.3 91.7 308.7 68.8 311.3C46 314 23 332 11.5 341L0 350Z" fill="#291a37"></path><path d="M0 411L11.5 397.5C23 384 46 357 68.8 353.5C91.7 350 114.3 370 137.2 371.8C160 373.7 183 357.3 205.8 350.2C228.7 343 251.3 345 274.2 355C297 365 320 383 342.8 387.5C365.7 392 388.3 383 411.2 370.3C434 357.7 457 341.3 480 343C503 344.7 526 364.3 548.8 377C571.7 389.7 594.3 395.3 617.2 394.5C640 393.7 663 386.3 685.8 380C708.7 373.7 731.3 368.3 754.2 360.2C777 352 800 341 822.8 339.2C845.7 337.3 868.3 344.7 891.2 347.5C914 350.3 937 348.7 948.5 347.8L960 347L960 323L948.5 324.8C937 326.7 914 330.3 891.2 326.7C868.3 323 845.7 312 822.8 313.8C800 315.7 777 330.3 754.2 338.5C731.3 346.7 708.7 348.3 685.8 352.8C663 357.3 640 364.7 617.2 366.5C594.3 368.3 571.7 364.7 548.8 353.8C526 343 503 325 480 324C457 323 434 339 411.2 350.7C388.3 362.3 365.7 369.7 342.8 365.2C320 360.7 297 344.3 274.2 334.5C251.3 324.7 228.7 321.3 205.8 326.8C183 332.3 160 346.7 137.2 345.7C114.3 344.7 91.7 328.3 68.8 331.8C46 335.3 23 358.7 11.5 370.3L0 382Z" fill="#271934"></path><path d="M0 438L11.5 426.3C23 414.7 46 391.3 68.8 387.8C91.7 384.3 114.3 400.7 137.2 400.7C160 400.7 183 384.3 205.8 376.2C228.7 368 251.3 368 274.2 378C297 388 320 408 342.8 414.3C365.7 420.7 388.3 413.3 411.2 400.7C434 388 457 370 480 370.8C503 371.7 526 391.3 548.8 403C571.7 414.7 594.3 418.3 617.2 418.3C640 418.3 663 414.7 685.8 408.3C708.7 402 731.3 393 754.2 385C777 377 800 370 822.8 370C845.7 370 868.3 377 891.2 379.7C914 382.3 937 380.7 948.5 379.8L960 379L960 345L948.5 345.8C937 346.7 914 348.3 891.2 345.5C868.3 342.7 845.7 335.3 822.8 337.2C800 339 777 350 754.2 358.2C731.3 366.3 708.7 371.7 685.8 378C663 384.3 640 391.7 617.2 392.5C594.3 393.3 571.7 387.7 548.8 375C526 362.3 503 342.7 480 341C457 339.3 434 355.7 411.2 368.3C388.3 381 365.7 390 342.8 385.5C320 381 297 363 274.2 353C251.3 343 228.7 341 205.8 348.2C183 355.3 160 371.7 137.2 369.8C114.3 368 91.7 348 68.8 351.5C46 355 23 382 11.5 395.5L0 409Z" fill="#251832"></path><path d="M0 455L11.5 443.2C23 431.3 46 407.7 68.8 405.8C91.7 404 114.3 424 137.2 424C160 424 183 404 205.8 395.8C228.7 387.7 251.3 391.3 274.2 403.2C297 415 320 435 342.8 439.5C365.7 444 388.3 433 411.2 419.5C434 406 457 390 480 391C503 392 526 410 548.8 420.7C571.7 431.3 594.3 434.7 617.2 436.3C640 438 663 438 685.8 431.8C708.7 425.7 731.3 413.3 754.2 405.3C777 397.3 800 393.7 822.8 394.5C845.7 395.3 868.3 400.7 891.2 403.3C914 406 937 406 948.5 406L960 406L960 377L948.5 377.8C937 378.7 914 380.3 891.2 377.7C868.3 375 845.7 368 822.8 368C800 368 777 375 754.2 383C731.3 391 708.7 400 685.8 406.3C663 412.7 640 416.3 617.2 416.3C594.3 416.3 571.7 412.7 548.8 401C526 389.3 503 369.7 480 368.8C457 368 434 386 411.2 398.7C388.3 411.3 365.7 418.7 342.8 412.3C320 406 297 386 274.2 376C251.3 366 228.7 366 205.8 374.2C183 382.3 160 398.7 137.2 398.7C114.3 398.7 91.7 382.3 68.8 385.8C46 389.3 23 412.7 11.5 424.3L0 436Z" fill="#24172f"></path><path d="M0 476L11.5 464.3C23 452.7 46 429.3 68.8 427.5C91.7 425.7 114.3 445.3 137.2 445.3C160 445.3 183 425.7 205.8 416.7C228.7 407.7 251.3 409.3 274.2 420.2C297 431 320 451 342.8 455.5C365.7 460 388.3 449 411.2 436.3C434 423.7 457 409.3 480 410.3C503 411.3 526 427.7 548.8 437.7C571.7 447.7 594.3 451.3 617.2 453.2C640 455 663 455 685.8 449.5C708.7 444 731.3 433 754.2 424.8C777 416.7 800 411.3 822.8 412.3C845.7 413.3 868.3 420.7 891.2 424.3C914 428 937 428 948.5 428L960 428L960 404L948.5 404C937 404 914 404 891.2 401.3C868.3 398.7 845.7 393.3 822.8 392.5C800 391.7 777 395.3 754.2 403.3C731.3 411.3 708.7 423.7 685.8 429.8C663 436 640 436 617.2 434.3C594.3 432.7 571.7 429.3 548.8 418.7C526 408 503 390 480 389C457 388 434 404 411.2 417.5C388.3 431 365.7 442 342.8 437.5C320 433 297 413 274.2 401.2C251.3 389.3 228.7 385.7 205.8 393.8C183 402 160 422 137.2 422C114.3 422 91.7 402 68.8 403.8C46 405.7 23 429.3 11.5 441.2L0 453Z" fill="#22162d"></path><path d="M0 541L11.5 541C23 541 46 541 68.8 541C91.7 541 114.3 541 137.2 541C160 541 183 541 205.8 541C228.7 541 251.3 541 274.2 541C297 541 320 541 342.8 541C365.7 541 388.3 541 411.2 541C434 541 457 541 480 541C503 541 526 541 548.8 541C571.7 541 594.3 541 617.2 541C640 541 663 541 685.8 541C708.7 541 731.3 541 754.2 541C777 541 800 541 822.8 541C845.7 541 868.3 541 891.2 541C914 541 937 541 948.5 541L960 541L960 426L948.5 426C937 426 914 426 891.2 422.3C868.3 418.7 845.7 411.3 822.8 410.3C800 409.3 777 414.7 754.2 422.8C731.3 431 708.7 442 685.8 447.5C663 453 640 453 617.2 451.2C594.3 449.3 571.7 445.7 548.8 435.7C526 425.7 503 409.3 480 408.3C457 407.3 434 421.7 411.2 434.3C388.3 447 365.7 458 342.8 453.5C320 449 297 429 274.2 418.2C251.3 407.3 228.7 405.7 205.8 414.7C183 423.7 160 443.3 137.2 443.3C114.3 443.3 91.7 423.7 68.8 425.5C46 427.3 23 450.7 11.5 462.3L0 474Z" fill="#20152a"></path></svg>